<?xml version="1.0" encoding="utf-8"?>
<!-- Generator: Adobe Illustrator 16.0.0, SVG Export Plug-In . SVG Version: 6.00 Build 0)  -->
<!DOCTYPE svg PUBLIC "-//W3C//DTD SVG 1.1//EN" "http://www.w3.org/Graphics/SVG/1.1/DTD/svg11.dtd">
<svg version="1.1" id="Layer_1" xmlns="http://www.w3.org/2000/svg" xmlns:xlink="http://www.w3.org/1999/xlink" x="0px" y="0px"
	 width="744.767px" height="402.342px" viewBox="-163.383 63.013 744.767 402.342"
	 enable-background="new -163.383 63.013 744.767 402.342" xml:space="preserve">
<g>
	<path fill="#1A1A1A" d="M85.48,12.212"/>
</g>
<path fill="#1A1A1A" d="M101.089,23.627"/>
<path fill="#1A1A1A" d="M-158.944,323.751c0,0-9.704-8.243-0.416-17.306c0,0,18.99-15.407,23.627-20.041
	c4.643-4.662,8.019-7.177,8.019-7.177s0.415-25.322,11.178-44.31c10.763-18.996,25.109-44.521,40.73-54.872
	c0,0,91.208-77.974,227.85-81.208c0,0,24.744-39.808,74.237-35.5c0,0,10.764,2.148-2.147,9.681c0,0-18.288,26.893-1.075,37.659
	c0,0,147.403,49.489,236.711,263.605c0,0-1.083,3.232,21.52,6.456c0,0,85.002,17.214,100.064,46.266c0,0,1.076,4.309-9.687,1.085
	c0,0-30.127-9.691-50.563-1.085c0,0-26.901,9.691-45.196,3.233c0,0-9.682-6.457-12.905,2.159c0,0-22.603,11.831-34.44,15.063
	c0,0-15.056,4.299-15.056,16.139c0,0-4.312,6.447-10.762-5.383c0,0-18.297-23.67,17.219-62.414c0,0-7.539-16.127-24.752-25.818
	c0,0-39.812-44.117-58.1-57.021c-18.287-12.914-89.304-51.648-145.255-52.733c0,0-94.69-3.223-107.602,3.235
	c0,0-7.524,55.945,16.135,72.094c0,0,7.539,11.83-9.674,9.681c0,0-35.515-9.681-57.026-49.489c0,0-8.614-20.457-17.228-16.158
	c0,0-83.912,24.755-97.906,23.69C-81.444,303.284-165.43,347.441-158.944,323.751z"/>
</svg>
